<?xml version="1.0" standalone="no"?>
<!DOCTYPE svg PUBLIC "-//W3C//DTD SVG 20010904//EN"
 "http://www.w3.org/TR/2001/REC-SVG-20010904/DTD/svg10.dtd">
<svg version="1.0" xmlns="http://www.w3.org/2000/svg"
 width="450.000000pt" height="150.000000pt" viewBox="0 0 450.000000 150.000000"
 preserveAspectRatio="xMidYMid meet">
<metadata>
Created by potrace 1.16, written by Peter Selinger 2001-2019
</metadata>
<g transform="translate(0.000000,150.000000) scale(0.100000,-0.100000)"
fill="#000000" stroke="none">
<path d="M0 750 l0 -750 2250 0 2250 0 0 750 0 750 -2250 0 -2250 0 0 -750z
m955 629 c77 -10 230 -46 288 -68 53 -20 53 -27 -12 -429 -33 -205 -66 -383
-73 -397 -9 -16 -18 -21 -26 -16 -20 12 -23 51 -6 102 9 27 13 56 10 65 -4 9
-2 22 3 28 5 6 12 36 15 66 5 55 14 120 36 260 7 41 14 95 15 119 2 24 6 60
10 80 5 28 1 41 -15 58 -39 43 -216 80 -427 90 -73 3 -133 10 -133 15 0 4 4 8
10 8 5 0 7 6 4 14 -4 11 5 16 38 18 57 5 164 -1 263 -13z m923 -78 c-3 -76 -8
-102 -21 -115 -21 -21 -22 -62 -2 -70 21 -8 19 -26 -2 -26 -22 1 -43 17 -66
50 -14 20 -17 48 -17 142 l0 118 56 0 56 0 -4 -99z m240 -27 l-3 -126 -33 -29
c-18 -16 -43 -29 -57 -29 -22 0 -25 -4 -25 -40 0 -29 4 -40 15 -40 30 0 75
-30 90 -61 14 -25 16 -63 13 -225 l-3 -196 -33 -29 c-18 -16 -43 -29 -57 -29
-22 0 -25 -4 -25 -40 0 -36 2 -40 26 -40 16 0 39 -13 60 -34 l34 -34 0 -106 0
-106 -40 0 -40 0 0 61 c0 51 -9 88 -26 108 -2 2 -13 -8 -25 -22 -22 -29 -59
-35 -81 -14 -20 20 -17 365 3 378 28 18 63 5 79 -28 34 -73 54 -5 48 163 -3
81 -8 127 -17 138 -16 19 -31 12 -31 -14 0 -27 -70 -44 -85 -20 -4 6 -8 88
-10 183 -3 184 2 207 48 207 25 0 57 -27 57 -49 0 -14 2 -14 9 -1 16 24 23
106 13 143 -13 45 -1 57 56 57 l44 0 -4 -126z m492 96 c0 -23 4 -30 20 -30 32
0 66 -20 83 -50 14 -24 17 -59 17 -220 l0 -191 -52 -25 -53 -26 40 7 c38 6 39
6 18 -9 -12 -9 -33 -17 -47 -18 -23 -2 -26 -7 -26 -40 0 -28 4 -38 15 -38 30
0 75 -30 90 -61 14 -25 16 -63 13 -225 l-3 -196 -33 -29 c-18 -16 -43 -29 -57
-29 -22 0 -25 -4 -25 -40 l0 -40 -55 0 -56 0 6 112 c3 73 9 115 18 120 22 14
56 9 75 -12 19 -20 19 -20 31 4 9 17 12 57 9 135 -4 117 -16 152 -41 117 -9
-12 -23 -17 -47 -14 -31 3 -35 7 -43 43 -4 22 -7 104 -5 183 3 129 5 145 22
158 22 16 55 10 73 -13 10 -13 15 -14 28 -3 26 21 18 233 -11 268 -1 2 -14 -4
-29 -14 -21 -13 -31 -15 -50 -6 -22 10 -25 18 -25 59 0 27 -3 72 -6 101 l-7
52 57 0 c56 0 56 0 56 -30z m807 4 c24 -12 31 -19 22 -25 -8 -4 -18 -4 -24 0
-5 5 -27 11 -47 15 -21 4 -38 11 -38 16 0 15 49 12 87 -6z m-2802 -23 c7 -12
-12 -24 -25 -16 -11 7 -4 25 10 25 5 0 11 -4 15 -9z m2701 -28 c-11 -11 -19 6
-11 24 8 17 8 17 12 0 3 -10 2 -21 -1 -24z m-832 -80 c3 -54 6 -154 5 -223 -2
-218 -1 -210 -24 -210 -24 0 -58 27 -74 57 -7 14 -11 89 -11 201 0 148 3 185
17 213 19 39 40 58 64 59 14 0 18 -17 23 -97z m-2185 61 c-14 -15 -23 -35 -21
-46 3 -16 0 -19 -13 -14 -15 5 -17 2 -11 -25 3 -17 6 -42 6 -55 0 -17 4 -22
15 -18 9 4 15 0 15 -9 0 -8 -5 -17 -11 -19 -7 -2 -8 -20 -4 -51 4 -26 11 -45
15 -42 5 3 12 0 16 -6 3 -6 1 -15 -6 -19 -18 -11 -2 -100 17 -100 12 0 13 -3
4 -14 -17 -20 -4 -106 15 -106 17 0 19 -17 3 -22 -16 -5 0 -98 17 -98 16 0 19
-16 3 -25 -12 -8 -3 -61 17 -93 8 -12 12 -26 10 -31 -3 -5 4 -22 16 -37 36
-48 172 -184 183 -184 6 0 15 -10 20 -22 15 -34 127 -121 136 -106 11 18 19 6
13 -19 -13 -48 -49 -30 -183 86 -72 63 -205 211 -227 252 -7 15 -41 195 -74
400 -66 413 -66 411 0 435 52 18 56 17 29 -12z m141 6 c0 -5 -4 -10 -10 -10
-5 0 -10 5 -10 10 0 6 5 10 10 10 6 0 10 -4 10 -10z m590 -24 c129 -28 150
-36 162 -61 9 -19 -1 -93 -45 -360 -50 -302 -58 -341 -83 -376 -40 -58 -270
-278 -298 -285 -24 -6 -66 10 -66 25 0 4 30 31 67 61 l66 53 -86 26 c-47 14
-88 29 -92 32 -3 4 32 35 78 69 l84 63 -83 40 c-46 22 -84 43 -84 46 1 3 37
33 80 66 44 33 76 62 72 66 -4 3 -36 16 -72 28 -36 13 -69 27 -73 31 -5 4 29
34 74 66 l82 58 -81 30 c-45 17 -82 34 -82 38 0 3 36 32 80 65 43 32 79 61 80
64 0 3 -36 22 -80 42 -44 19 -80 39 -79 44 0 4 24 28 52 52 l52 43 105 -6 c58
-3 134 -12 170 -20z m-240 -155 c0 -6 -4 -13 -10 -16 -5 -3 -10 1 -10 9 0 9 5
16 10 16 6 0 10 -4 10 -9z m1064 -153 c2 -13 10 -49 16 -81 7 -36 10 -128 8
-242 -3 -172 -4 -185 -21 -185 -11 0 -34 15 -53 34 l-34 34 0 202 0 202 29 29
c35 35 49 37 55 7z m2501 -369 c-60 -229 -254 -419 -493 -480 -117 -30 -283
-24 -376 13 -25 10 -27 13 -12 24 10 7 33 10 54 7 23 -3 60 4 96 16 33 12 74
21 93 21 18 0 33 4 33 10 0 5 12 13 28 16 15 4 34 12 42 19 8 7 51 34 95 60
44 26 98 63 121 83 23 21 63 54 89 76 61 51 115 124 160 216 21 41 47 86 59
98 l21 24 3 -71 c2 -41 -4 -95 -13 -132z m-3587 115 c-14 -14 -15 -14 -10 11
3 19 8 23 15 16 8 -8 7 -16 -5 -27z m1707 -76 c14 -124 12 -349 -4 -386 -10
-25 -11 -36 -2 -45 16 -16 14 -27 -5 -27 -9 0 -31 15 -50 34 l-34 34 0 192 c0
167 2 191 15 186 11 -4 15 2 15 24 0 16 7 36 16 44 30 31 41 19 49 -56z
m-1698 -130 c-3 -8 -6 -5 -6 6 -1 11 2 17 5 13 3 -3 4 -12 1 -19z m273 -113
c0 -8 -7 -15 -15 -15 -16 0 -20 12 -8 23 11 12 23 8 23 -8z m813 -55 c4 -16 9
-76 13 -135 l7 -105 -57 0 -56 0 0 104 c0 98 2 106 26 135 33 40 60 40 67 1z
m-933 -70 c0 -5 -4 -10 -10 -10 -5 0 -10 5 -10 10 0 6 5 10 10 10 6 0 10 -4
10 -10z"/>
<path d="M1910 942 c0 -18 5 -32 10 -32 6 0 8 11 4 28 -10 39 -14 40 -14 4z"/>
</g>
</svg>
